<svg xmlns="http://www.w3.org/2000/svg" viewBox="0 0 264.479 130.783">
  <defs>
    <style>
      .cls-1 {
        fill: #fff;
      }
    </style>
  </defs>
  <g id="Group_346" data-name="Group 346" transform="matrix(0.966, -0.259, 0.259, 0.966, 0.003, 58.325)">
    <g id="Group_344" data-name="Group 344" transform="translate(0 -0.012)">
      <path id="Path_4333" data-name="Path 4333" class="cls-1" d="M224.608,75.014C209.494,57.8,192.981,41.428,174.089,28.833l-3.5-2.379-3.639-2.239-1.819-1.12-1.819-.98-3.778-2.1a166.682,166.682,0,0,0-15.394-6.857,110.65,110.65,0,0,0-16.093-4.618,113.793,113.793,0,0,0-16.793-1.679,91.646,91.646,0,0,0-32.467,5.6A133.88,133.88,0,0,0,49.4,27.853C30.927,40.448,14.834,56.821.7,75.014l-.7-.42A150.46,150.46,0,0,1,31.067,32.471,154.544,154.544,0,0,1,44.642,21,109.6,109.6,0,0,1,76.269,4.623,101.444,101.444,0,0,1,111.674.145a93.958,93.958,0,0,1,17.633,2.519A117.6,117.6,0,0,1,146.1,8.121a164.871,164.871,0,0,1,15.814,7.7l3.778,2.239,1.819,1.12,1.819,1.259,3.639,2.379,3.5,2.519a214.877,214.877,0,0,1,26.169,22.951,286.517,286.517,0,0,1,22.671,26.169Z" transform="translate(0 0.012)"/>
    </g>
    <g id="Group_345" data-name="Group 345" transform="translate(185.704 38.769)">
      <path id="Path_4334" data-name="Path 4334" class="cls-1" d="M132.7,63.385c4.338-1.539,9.1-1.539,13.714-.98a47.843,47.843,0,0,1,13.155,4.058,77.956,77.956,0,0,1,11.9,7,91,91,0,0,1,10.5,8.956L177.342,84.8A115.36,115.36,0,0,1,175.1,69.263a58.951,58.951,0,0,1,.7-15.674,48.181,48.181,0,0,1,5.458-14.974A28.292,28.292,0,0,1,192.6,27.7l.42.56a40.983,40.983,0,0,0-7.277,12.595,58.416,58.416,0,0,0-3.079,13.854c-.56,4.758-.84,9.516-1.12,14.414a63.15,63.15,0,0,0,.14,7.277c.14,2.379.42,4.9.7,7.277l1.4,8.956-6.018-6.577c-5.878-6.437-12.455-12.455-20.012-16.793a47.31,47.31,0,0,0-12.035-4.9,34.128,34.128,0,0,0-6.437-.98,20.616,20.616,0,0,0-6.577.56Z" transform="translate(-132.7 -27.7)"/>
    </g>
  </g>
</svg>
