<svg id="Group_30" data-name="Group 30" xmlns="http://www.w3.org/2000/svg" viewBox="0 0 191.478 53.175">
  <defs>
    <style>
      .cls-1 {
        fill: #be2025;
      }

      .cls-2 {
        fill: none;
        stroke: #be2025;
        stroke-width: 1.904px;
      }
    </style>
  </defs>
  <path id="Path_31" data-name="Path 31" class="cls-1" d="M12.765,4.1a8.465,8.465,0,1,0,8.465,8.465A8.5,8.5,0,0,0,12.765,4.1Z" transform="translate(0.827 0.788)"/>
  <g id="Group_28" data-name="Group 28" transform="translate(23.607 4.888)">
    <g id="Group_27" data-name="Group 27">
      <g id="Group_24" data-name="Group 24">
        <g id="Group_23" data-name="Group 23">
          <path id="Path_32" data-name="Path 32" class="cls-1" d="M28.265,21.03a8.465,8.465,0,1,1,8.465-8.465A8.5,8.5,0,0,1,28.265,21.03Zm0-15.261a6.793,6.793,0,0,0-6.8,6.8,6.8,6.8,0,0,0,13.592,0A6.718,6.718,0,0,0,28.265,5.769Z" transform="translate(-19.8 -4.1)"/>
        </g>
      </g>
      <g id="Group_26" data-name="Group 26" transform="translate(8.465 8.465)">
        <g id="Group_25" data-name="Group 25">
          <path id="Path_33" data-name="Path 33" class="cls-2" d="M26.9,11.2" transform="translate(-26.9 -11.2)"/>
        </g>
      </g>
    </g>
  </g>
  <path id="Path_34" data-name="Path 34" class="cls-1" d="M12.765,19.6a8.465,8.465,0,1,0,8.465,8.465A8.5,8.5,0,0,0,12.765,19.6Zm0,15.261a6.8,6.8,0,1,1,6.8-6.8A6.871,6.871,0,0,1,12.765,34.861Z" transform="translate(0.827 3.768)"/>
  <path id="Path_35" data-name="Path 35" class="cls-1" d="M28.265,19.6a8.465,8.465,0,1,0,8.465,8.465A8.5,8.5,0,0,0,28.265,19.6Zm0,15.261a6.8,6.8,0,1,1,6.8-6.8A6.793,6.793,0,0,1,28.265,34.861Z" transform="translate(3.807 3.768)"/>
  <path id="Path_36" data-name="Path 36" class="cls-1" d="M40.895,0H4.531A4.529,4.529,0,0,0,0,4.531V40.776a4.529,4.529,0,0,0,4.531,4.531H28.257c1.908,2.385,5.008,4.292,12.4,7.75a.893.893,0,0,0,.6.119,1.252,1.252,0,0,0,1.073-.6,1.3,1.3,0,0,0-.238-1.669,9.9,9.9,0,0,1-3.458-5.6h2.146a4.529,4.529,0,0,0,4.531-4.531V4.531A4.356,4.356,0,0,0,40.895,0ZM42.8,40.895a2.01,2.01,0,0,1-2.027,2.027H37.2a1.323,1.323,0,0,0-1.311,1.311v.119a11.177,11.177,0,0,0,.954,4.292C32.43,46.379,31,45.068,29.926,43.637a1.252,1.252,0,0,0-1.073-.6H4.531A2.01,2.01,0,0,1,2.5,41.014V4.531A2.01,2.01,0,0,1,4.531,2.5H40.776A2.01,2.01,0,0,1,42.8,4.531Z"/>
  <g id="Group_29" data-name="Group 29" transform="translate(56.394 13.353)">
    <path id="Path_37" data-name="Path 37" class="cls-1" d="M65.9,31.949a9.076,9.076,0,0,1-.358,2.5,10.569,10.569,0,0,1-.954,2.027,8.834,8.834,0,0,1-1.431,1.55A6.047,6.047,0,0,1,61.25,39.1a12.6,12.6,0,0,1-2.265.715,19.782,19.782,0,0,1-2.861.238H48.731a1.427,1.427,0,0,1-1.431-1.55V13.35a1.256,1.256,0,0,1,.477-1.192,1.354,1.354,0,0,1,.954-.358h6.438a13.846,13.846,0,0,1,4.173.477,8.511,8.511,0,0,1,2.742,1.431,5.369,5.369,0,0,1,1.669,2.265,7.81,7.81,0,0,1,.6,2.981,9.266,9.266,0,0,1-.238,1.908A4.18,4.18,0,0,1,63.4,22.53,12.629,12.629,0,0,1,62.2,23.961a5.577,5.577,0,0,1-1.669.954,5.355,5.355,0,0,1,2.146.835,5.279,5.279,0,0,1,1.788,1.431,6.252,6.252,0,0,1,1.192,2.146A17.859,17.859,0,0,1,65.9,31.949ZM60.3,19.311a9.266,9.266,0,0,0-.238-1.908,4.123,4.123,0,0,0-.835-1.431,3.253,3.253,0,0,0-1.55-.835,7.706,7.706,0,0,0-2.623-.358H51.234v9.18h4.054a6.7,6.7,0,0,0,2.385-.358A3.255,3.255,0,0,0,59.1,22.53a3.926,3.926,0,0,0,.835-1.55A3.808,3.808,0,0,0,60.3,19.311Zm1.669,12.876a6.942,6.942,0,0,0-.358-2.265,5.374,5.374,0,0,0-1.192-1.669,4.793,4.793,0,0,0-1.908-.954,10.163,10.163,0,0,0-2.981-.358H51v9.9H56.48a6.942,6.942,0,0,0,2.265-.358,4.678,4.678,0,0,0,1.669-.954,5.348,5.348,0,0,0,1.192-1.55A3.65,3.65,0,0,0,61.965,32.188Z" transform="translate(-47.3 -11.085)"/>
    <path id="Path_38" data-name="Path 38" class="cls-1" d="M70.231,13.346c0,.835-.119,1.431-.477,1.669a3.592,3.592,0,0,1-3.577,0c-.358-.238-.477-.835-.477-1.669s.119-1.431.477-1.669a3.592,3.592,0,0,1,3.577,0A2.157,2.157,0,0,1,70.231,13.346Zm-.358,26.23c0,.119,0,.238-.119.238,0,.119-.119.119-.238.238a5.164,5.164,0,0,1-.6.119H67.25a5.164,5.164,0,0,1-.6-.119.256.256,0,0,1-.238-.238c0-.119-.119-.119-.119-.238V20.023c0-.119,0-.238.119-.238,0-.119.119-.119.238-.238a5.164,5.164,0,0,1,.6-.119h1.669c.238,0,.358.119.6.119a.256.256,0,0,1,.238.238.416.416,0,0,0,.119.238Z" transform="translate(-43.762 -11.2)"/>
    <path id="Path_39" data-name="Path 39" class="cls-1" d="M90.3,19.588a2.381,2.381,0,0,1-.238,1.073.639.639,0,0,1-.477.358H86.723A4.49,4.49,0,0,1,87.8,22.808a5.569,5.569,0,0,1,.358,2.027,7.81,7.81,0,0,1-.6,2.981,6.99,6.99,0,0,1-1.55,2.265,7.937,7.937,0,0,1-2.385,1.431,8.47,8.47,0,0,1-3.1.477,6.942,6.942,0,0,1-2.265-.358,4.356,4.356,0,0,1-1.669-.835,3.623,3.623,0,0,0-.6.835,3.527,3.527,0,0,0-.238,1.192,1.647,1.647,0,0,0,.715,1.311,4.006,4.006,0,0,0,1.908.6l5.127.238a8.722,8.722,0,0,1,2.623.358A6.052,6.052,0,0,1,88.273,36.4,4.854,4.854,0,0,1,89.7,38.069a4.539,4.539,0,0,1,.477,2.265,6.5,6.5,0,0,1-.6,2.623A5.1,5.1,0,0,1,87.8,45.1a9.9,9.9,0,0,1-2.981,1.431,15.222,15.222,0,0,1-4.292.477,19.669,19.669,0,0,1-4.054-.358,8.237,8.237,0,0,1-2.742-1.073,5.09,5.09,0,0,1-1.55-1.669,4.083,4.083,0,0,1-.477-2.146,5.345,5.345,0,0,1,.6-2.742c.238-.358.6-.835.835-1.192a10.75,10.75,0,0,1,1.192-1.073,3.624,3.624,0,0,1-1.55-1.431,3.365,3.365,0,0,1-.477-1.788,5.427,5.427,0,0,1,.6-2.385A10.8,10.8,0,0,1,74.2,29.246a7.116,7.116,0,0,1-1.073-1.788,7.926,7.926,0,0,1-.358-2.5,7.81,7.81,0,0,1,.6-2.981,7.637,7.637,0,0,1,1.55-2.265A7.937,7.937,0,0,1,77.3,18.277a8.47,8.47,0,0,1,3.1-.477,7.332,7.332,0,0,1,1.669.119c.477.119.954.119,1.431.238h5.961a.656.656,0,0,1,.6.358A2.381,2.381,0,0,1,90.3,19.588ZM86.484,40.334a2.023,2.023,0,0,0-1.073-1.908,4.939,4.939,0,0,0-2.742-.715l-5.127-.119a10.748,10.748,0,0,0-1.192,1.073c-.238.358-.477.6-.715.954-.119.238-.238.6-.358.835a2.029,2.029,0,0,0-.119.835,2.291,2.291,0,0,0,1.431,2.146,9.141,9.141,0,0,0,4.054.715,9,9,0,0,0,2.742-.358,6.231,6.231,0,0,0,1.788-.835,3.028,3.028,0,0,0,.954-1.192A3.174,3.174,0,0,0,86.484,40.334Zm-1.908-15.5a4.26,4.26,0,0,0-1.073-3.1,4.26,4.26,0,0,0-3.1-1.073,3.981,3.981,0,0,0-1.788.358,5.294,5.294,0,0,0-1.311.954,2.72,2.72,0,0,0-.715,1.431,7.037,7.037,0,0,0-.238,1.669,4.457,4.457,0,0,0,1.073,3.1,4.26,4.26,0,0,0,3.1,1.073,4.943,4.943,0,0,0,1.908-.358,5.293,5.293,0,0,0,1.311-.954,2.72,2.72,0,0,0,.715-1.431A8.446,8.446,0,0,0,84.576,24.834Z" transform="translate(-42.609 -9.931)"/>
    <path id="Path_40" data-name="Path 40" class="cls-1" d="M114.157,25.707a20.527,20.527,0,0,1-.835,6.2,14.287,14.287,0,0,1-2.385,4.65,10.278,10.278,0,0,1-4.054,2.981,13.818,13.818,0,0,1-5.6,1.073,15.048,15.048,0,0,1-5.484-.954,9,9,0,0,1-3.815-2.742,12.442,12.442,0,0,1-2.265-4.531,23.952,23.952,0,0,1-.715-6.2,19.237,19.237,0,0,1,.835-6.081,14.287,14.287,0,0,1,2.385-4.65,10.278,10.278,0,0,1,4.054-2.981,13.818,13.818,0,0,1,5.6-1.073,14.387,14.387,0,0,1,5.365.954,9,9,0,0,1,3.815,2.742,11.873,11.873,0,0,1,2.265,4.411A20.527,20.527,0,0,1,114.157,25.707Zm-4.054.238a17.266,17.266,0,0,0-.477-4.411,8.694,8.694,0,0,0-1.431-3.577,8.385,8.385,0,0,0-2.623-2.385,8.491,8.491,0,0,0-4.054-.835,8.149,8.149,0,0,0-4.054.954,8.818,8.818,0,0,0-2.742,2.385,8.694,8.694,0,0,0-1.431,3.577,23.627,23.627,0,0,0-.477,4.292,25.865,25.865,0,0,0,.358,4.531A8.694,8.694,0,0,0,94.6,34.053a7.26,7.26,0,0,0,2.623,2.385,8.681,8.681,0,0,0,4.173.835,8.985,8.985,0,0,0,4.173-.954,7.856,7.856,0,0,0,2.742-2.5,9.409,9.409,0,0,0,1.431-3.577A24.034,24.034,0,0,0,110.1,25.946Z" transform="translate(-39.282 -11.162)"/>
    <path id="Path_41" data-name="Path 41" class="cls-1" d="M130.019,18.7v.715c0,.119,0,.238-.119.238l-6.677,18.6c0,.119-.119.238-.238.358a.619.619,0,0,1-.477.238c-.238,0-.477.119-.715.119h-2.146c-.238,0-.477-.119-.715-.119a.619.619,0,0,1-.477-.238c-.119-.119-.238-.238-.238-.358l-6.677-18.6c0-.119-.119-.358-.119-.477s0-.238-.119-.238v-.119a.438.438,0,0,1,.119-.358c0-.119.119-.119.238-.238a5.163,5.163,0,0,1,.6-.119h1.788a5.165,5.165,0,0,1,.6.119c.119,0,.238.119.358.238s.119.238.238.358l5.484,16.1.119.238.119-.238,5.484-16.1c0-.119.119-.238.119-.358a.917.917,0,0,1,.358-.238,5.164,5.164,0,0,1,.6-.119H129.3c.238,0,.358,0,.477.119a.256.256,0,0,1,.238.238Z" transform="translate(-34.995 -9.873)"/>
    <path id="Path_42" data-name="Path 42" class="cls-1" d="M145.8,27.7a1.256,1.256,0,0,1-.477,1.192,1.354,1.354,0,0,1-.954.358H131.5a12.012,12.012,0,0,0,.358,2.981,6.647,6.647,0,0,0,1.073,2.265,5.18,5.18,0,0,0,2.027,1.431,7.451,7.451,0,0,0,2.981.477,14.882,14.882,0,0,0,2.5-.238c.715-.119,1.311-.358,1.908-.477a9.056,9.056,0,0,1,1.311-.477,3.033,3.033,0,0,1,.835-.238c.119,0,.238,0,.238.119.119,0,.119.119.238.238,0,.119.119.238.119.477v1.55c0,.119,0,.238-.119.238,0,.119-.119.119-.238.238a1.941,1.941,0,0,1-.715.358,4.759,4.759,0,0,1-1.55.477c-.6.119-1.312.358-2.146.477a17.859,17.859,0,0,1-2.623.238,12,12,0,0,1-4.292-.715,7.8,7.8,0,0,1-3.1-2.027A9.09,9.09,0,0,1,128.4,33.3a13.767,13.767,0,0,1-.6-4.65,17.377,17.377,0,0,1,.6-4.531,10.779,10.779,0,0,1,1.908-3.458,7.656,7.656,0,0,1,2.981-2.146,10.5,10.5,0,0,1,3.934-.715,9.668,9.668,0,0,1,3.934.715,6.474,6.474,0,0,1,2.623,2.027,7.881,7.881,0,0,1,1.55,2.981A11.787,11.787,0,0,1,145.8,27.1v.6Zm-3.7-1.073a6.3,6.3,0,0,0-1.312-4.411,4.705,4.705,0,0,0-3.934-1.669,5.338,5.338,0,0,0-2.385.477,6.266,6.266,0,0,0-1.669,1.311,6.046,6.046,0,0,0-1.073,1.908,7.487,7.487,0,0,0-.358,2.265h10.73Z" transform="translate(-31.823 -9.931)"/>
    <path id="Path_43" data-name="Path 43" class="cls-1" d="M163.111,38.307c0,.119,0,.238-.119.238,0,.119-.119.119-.238.238a5.164,5.164,0,0,1-.6.119h-1.669c-.238,0-.358-.119-.6-.119a.256.256,0,0,1-.238-.238c0-.119-.119-.119-.119-.238V26.861a16.743,16.743,0,0,0-.238-2.742,6.215,6.215,0,0,0-.715-1.788,2.915,2.915,0,0,0-1.311-1.073,4.356,4.356,0,0,0-1.788-.358,5.084,5.084,0,0,0-2.742.954,12.875,12.875,0,0,0-2.861,2.861V38.307c0,.119,0,.238-.119.238,0,.119-.119.119-.238.238a5.164,5.164,0,0,1-.6.119h-1.669a5.164,5.164,0,0,1-.6-.119.256.256,0,0,1-.238-.238c0-.119-.119-.119-.119-.238V18.754c0-.119,0-.238.119-.238,0-.119.119-.119.238-.238s.238-.119.477-.119H148.8c.238,0,.358.119.477.119.119.119.238.119.238.238s.119.119.119.238v2.623a11.672,11.672,0,0,1,3.338-2.742,6.613,6.613,0,0,1,3.338-.835,7.259,7.259,0,0,1,3.338.715A6.382,6.382,0,0,1,161.8,20.3a5.919,5.919,0,0,1,1.192,2.623,15.047,15.047,0,0,1,.358,3.577v11.8Z" transform="translate(-28.266 -9.931)"/>
  </g>
</svg>
