<svg id="Group_64" data-name="Group 64" xmlns="http://www.w3.org/2000/svg" viewBox="0 0 87.413 102.5">
  <defs>
    <style>
      .cls-1 {
        fill: #fff;
      }

      .cls-2 {
        fill: none;
        stroke: #be2025;
        stroke-width: 6.312px;
      }
    </style>
  </defs>
  <path id="Path_89" data-name="Path 89" class="cls-1" d="M81.264,13.5A16.264,16.264,0,1,1,65,29.834,16.29,16.29,0,0,1,81.264,13.5Z" transform="translate(-20.013 -4.157)"/>
  <g id="Group_63" data-name="Group 63" transform="translate(9.343 9.413)">
    <g id="Group_62" data-name="Group 62">
      <g id="Group_59" data-name="Group 59">
        <g id="Group_58" data-name="Group 58">
          <path id="Path_90" data-name="Path 90" class="cls-1" d="M13.5,29.864A16.264,16.264,0,1,1,29.764,46.129,16.29,16.29,0,0,1,13.5,29.864Zm3.322,0A12.943,12.943,0,1,0,29.764,16.853,12.967,12.967,0,0,0,16.822,29.864Z" transform="translate(-13.5 -13.6)"/>
        </g>
      </g>
      <g id="Group_61" data-name="Group 61" transform="translate(16.264 16.264)">
        <g id="Group_60" data-name="Group 60">
          <path id="Path_91" data-name="Path 91" class="cls-2" d="M37,37.1" transform="translate(-37 -37.1)"/>
        </g>
      </g>
    </g>
  </g>
  <path id="Path_92" data-name="Path 92" class="cls-1" d="M65,81.264A16.264,16.264,0,1,0,81.264,65,16.29,16.29,0,0,0,65,81.264Zm3.253,0A12.942,12.942,0,1,1,81.2,94.207,12.967,12.967,0,0,1,68.253,81.264Z" transform="translate(-20.013 -20.013)"/>
  <path id="Path_93" data-name="Path 93" class="cls-1" d="M13.5,81.264A16.264,16.264,0,1,0,29.764,65,16.29,16.29,0,0,0,13.5,81.264Zm3.322,0A12.942,12.942,0,1,1,29.764,94.207,12.967,12.967,0,0,1,16.822,81.264Z" transform="translate(-4.157 -20.013)"/>
  <path id="Path_94" data-name="Path 94" class="cls-1" d="M0,8.79V78.623a8.8,8.8,0,0,0,8.79,8.79h4.222C12.6,89.835,11.143,93.641,6.3,98.14a2.621,2.621,0,0,0-.415,3.253A2.531,2.531,0,0,0,7.959,102.5,2.777,2.777,0,0,0,9,102.293c14.327-6.506,20.279-10.174,23.878-14.811H78.623a8.8,8.8,0,0,0,8.79-8.79V8.79A8.8,8.8,0,0,0,78.623,0H8.79A8.8,8.8,0,0,0,0,8.79Zm4.983,0A3.84,3.84,0,0,1,8.79,4.983H78.623A3.84,3.84,0,0,1,82.429,8.79V78.623a3.84,3.84,0,0,1-3.807,3.807H31.629a2.531,2.531,0,0,0-2.076,1.107c-1.938,2.838-4.845,5.4-13.288,9.689a19.019,19.019,0,0,0,1.869-8.167v-.138a2.481,2.481,0,0,0-2.492-2.492H8.79a3.84,3.84,0,0,1-3.807-3.807V8.79Z"/>
</svg>
