<svg id="Group_237" data-name="Group 237" xmlns="http://www.w3.org/2000/svg" viewBox="0 0 294.038 81.657">
  <defs>
    <style>
      .cls-1 {
        fill: #fff;
      }

      .cls-2 {
        fill: none;
      }
    </style>
  </defs>
  <g id="Group_250" data-name="Group 250" transform="translate(0 0)">
    <path id="Path_31" data-name="Path 31" class="cls-1" d="M17.3,4.1a13,13,0,1,0,13,13A13.049,13.049,0,0,0,17.3,4.1Z" transform="translate(3.573 3.407)"/>
    <g id="Group_28" data-name="Group 28" transform="translate(36.251 7.507)">
      <g id="Group_27" data-name="Group 27">
        <g id="Group_24" data-name="Group 24">
          <g id="Group_23" data-name="Group 23">
            <path id="Path_32" data-name="Path 32" class="cls-1" d="M32.8,30.1a13,13,0,1,1,13-13A13.049,13.049,0,0,1,32.8,30.1Zm0-23.435A10.431,10.431,0,0,0,22.363,17.1a10.436,10.436,0,1,0,20.872,0A10.317,10.317,0,0,0,32.8,6.663Z" transform="translate(-19.8 -4.1)"/>
          </g>
        </g>
        <g id="Group_26" data-name="Group 26" transform="translate(12.999 12.999)">
          <g id="Group_25" data-name="Group 25">
            <path id="Path_33" data-name="Path 33" class="cls-2" d="M26.9,11.2" transform="translate(-26.9 -11.2)"/>
          </g>
        </g>
      </g>
    </g>
    <path id="Path_34" data-name="Path 34" class="cls-1" d="M17.3,19.6a13,13,0,1,0,13,13A13.049,13.049,0,0,0,17.3,19.6Zm0,23.435A10.436,10.436,0,1,1,27.735,32.6,10.551,10.551,0,0,1,17.3,43.035Z" transform="translate(3.573 16.285)"/>
    <path id="Path_35" data-name="Path 35" class="cls-1" d="M32.8,19.6a13,13,0,1,0,13,13A13.049,13.049,0,0,0,32.8,19.6Zm0,23.435A10.436,10.436,0,1,1,43.235,32.6,10.431,10.431,0,0,1,32.8,43.035Z" transform="translate(16.451 16.285)"/>
    <path id="Path_36" data-name="Path 36" class="cls-1" d="M62.8,0H6.957A6.954,6.954,0,0,0,0,6.957V62.616a6.954,6.954,0,0,0,6.957,6.957H43.392c2.929,3.662,7.69,6.591,19.041,11.9a1.372,1.372,0,0,0,.915.183A1.923,1.923,0,0,0,65,80.741a2,2,0,0,0-.366-2.563c-3.845-3.479-4.943-6.591-5.31-8.605h3.3a6.954,6.954,0,0,0,6.957-6.957V6.957A6.689,6.689,0,0,0,62.8,0Zm2.929,62.8a3.086,3.086,0,0,1-3.112,3.112H57.123a2.032,2.032,0,0,0-2.014,2.014v.183A17.164,17.164,0,0,0,56.574,74.7C49.8,71.221,47.6,69.207,45.955,67.01a1.923,1.923,0,0,0-1.648-.915H6.957a3.086,3.086,0,0,1-3.112-3.112V6.957A3.086,3.086,0,0,1,6.957,3.845H62.616a3.086,3.086,0,0,1,3.112,3.112Z"/>
    <g id="Group_29" data-name="Group 29" transform="translate(86.6 20.506)">
      <path id="Path_37" data-name="Path 37" class="cls-1" d="M75.862,42.742a13.937,13.937,0,0,1-.549,3.845A16.23,16.23,0,0,1,73.848,49.7a13.566,13.566,0,0,1-2.2,2.38,9.285,9.285,0,0,1-2.929,1.648,19.341,19.341,0,0,1-3.479,1.1,30.378,30.378,0,0,1-4.394.366H49.5a2.192,2.192,0,0,1-2.2-2.38V14.18a1.928,1.928,0,0,1,.732-1.831A2.079,2.079,0,0,1,49.5,11.8h9.887a21.262,21.262,0,0,1,6.408.732A13.071,13.071,0,0,1,70,14.729a8.245,8.245,0,0,1,2.563,3.479,11.994,11.994,0,0,1,.915,4.577,14.229,14.229,0,0,1-.366,2.929,6.419,6.419,0,0,1-1.1,2.563,19.4,19.4,0,0,1-1.831,2.2,8.565,8.565,0,0,1-2.563,1.465,8.223,8.223,0,0,1,3.3,1.282,8.107,8.107,0,0,1,2.746,2.2,9.6,9.6,0,0,1,1.831,3.3A27.426,27.426,0,0,1,75.862,42.742ZM67.256,23.334a14.227,14.227,0,0,0-.366-2.929,6.331,6.331,0,0,0-1.282-2.2,5,5,0,0,0-2.38-1.282,11.833,11.833,0,0,0-4.028-.549H53.342v14.1h6.225a10.286,10.286,0,0,0,3.662-.549,5,5,0,0,0,2.2-1.648,6.028,6.028,0,0,0,1.282-2.38A5.848,5.848,0,0,0,67.256,23.334ZM69.82,43.108a10.66,10.66,0,0,0-.549-3.479,8.252,8.252,0,0,0-1.831-2.563A7.36,7.36,0,0,0,64.51,35.6a15.606,15.606,0,0,0-4.577-.549H52.976v15.2H61.4a10.66,10.66,0,0,0,3.479-.549,7.184,7.184,0,0,0,2.563-1.465,8.211,8.211,0,0,0,1.831-2.38A5.6,5.6,0,0,0,69.82,43.108Z" transform="translate(-47.3 -10.701)"/>
      <path id="Path_38" data-name="Path 38" class="cls-1" d="M72.657,14.5c0,1.282-.183,2.2-.732,2.563a3.8,3.8,0,0,1-2.746.732,3.8,3.8,0,0,1-2.746-.732c-.549-.366-.732-1.282-.732-2.563s.183-2.2.732-2.563a3.8,3.8,0,0,1,2.746-.732,3.8,3.8,0,0,1,2.746.732A3.312,3.312,0,0,1,72.657,14.5Zm-.549,40.279c0,.183,0,.366-.183.366,0,.183-.183.183-.366.366a7.929,7.929,0,0,1-.915.183H68.08a7.929,7.929,0,0,1-.915-.183.394.394,0,0,1-.366-.366c0-.183-.183-.183-.183-.366V24.748c0-.183,0-.366.183-.366,0-.183.183-.183.366-.366a7.929,7.929,0,0,1,.915-.183h2.563c.366,0,.549.183.915.183a.394.394,0,0,1,.366.366.639.639,0,0,0,.183.366Z" transform="translate(-32.012 -11.2)"/>
      <path id="Path_39" data-name="Path 39" class="cls-1" d="M100.262,20.546a3.656,3.656,0,0,1-.366,1.648.981.981,0,0,1-.732.549H94.769a6.9,6.9,0,0,1,1.648,2.746,8.553,8.553,0,0,1,.549,3.112,11.994,11.994,0,0,1-.915,4.577,10.734,10.734,0,0,1-2.38,3.479,12.187,12.187,0,0,1-3.662,2.2,13.006,13.006,0,0,1-4.76.732,10.66,10.66,0,0,1-3.479-.549,6.689,6.689,0,0,1-2.563-1.282,5.565,5.565,0,0,0-.915,1.282,5.416,5.416,0,0,0-.366,1.831,2.53,2.53,0,0,0,1.1,2.014,6.152,6.152,0,0,0,2.929.915l7.873.366a13.394,13.394,0,0,1,4.028.549,9.293,9.293,0,0,1,3.3,1.648,7.454,7.454,0,0,1,2.2,2.563,6.97,6.97,0,0,1,.732,3.479,9.977,9.977,0,0,1-.915,4.028,7.838,7.838,0,0,1-2.746,3.3,15.2,15.2,0,0,1-4.577,2.2,23.374,23.374,0,0,1-6.591.732,30.2,30.2,0,0,1-6.225-.549,12.649,12.649,0,0,1-4.211-1.648,7.817,7.817,0,0,1-2.38-2.563,6.27,6.27,0,0,1-.732-3.3,8.208,8.208,0,0,1,.915-4.211c.366-.549.915-1.282,1.282-1.831a16.509,16.509,0,0,1,1.831-1.648,5.565,5.565,0,0,1-2.38-2.2,5.167,5.167,0,0,1-.732-2.746,8.333,8.333,0,0,1,.915-3.662,16.591,16.591,0,0,1,2.014-2.929A10.927,10.927,0,0,1,73.9,32.63a12.172,12.172,0,0,1-.549-3.845,11.993,11.993,0,0,1,.915-4.577,11.726,11.726,0,0,1,2.38-3.479,12.187,12.187,0,0,1,3.662-2.2,13.006,13.006,0,0,1,4.76-.732,11.259,11.259,0,0,1,2.563.183c.732.183,1.465.183,2.2.366H98.98a1.007,1.007,0,0,1,.915.549A3.655,3.655,0,0,1,100.262,20.546ZM94.4,52.4a3.106,3.106,0,0,0-1.648-2.929,7.584,7.584,0,0,0-4.211-1.1l-7.873-.183A16.5,16.5,0,0,0,78.84,49.84c-.366.549-.732.915-1.1,1.465-.183.366-.366.915-.549,1.282a3.116,3.116,0,0,0-.183,1.282,3.519,3.519,0,0,0,2.2,3.3,14.038,14.038,0,0,0,6.225,1.1,13.822,13.822,0,0,0,4.211-.549,9.569,9.569,0,0,0,2.746-1.282A4.649,4.649,0,0,0,93.854,54.6,4.875,4.875,0,0,0,94.4,52.4ZM91.473,28.6a6.542,6.542,0,0,0-1.648-4.76,6.542,6.542,0,0,0-4.76-1.648,6.114,6.114,0,0,0-2.746.549,8.128,8.128,0,0,0-2.014,1.465,4.176,4.176,0,0,0-1.1,2.2,10.805,10.805,0,0,0-.366,2.563,6.845,6.845,0,0,0,1.648,4.76,6.541,6.541,0,0,0,4.76,1.648,7.59,7.59,0,0,0,2.929-.549,8.128,8.128,0,0,0,2.014-1.465,4.176,4.176,0,0,0,1.1-2.2A12.968,12.968,0,0,0,91.473,28.6Z" transform="translate(-27.027 -5.716)"/>
      <path id="Path_40" data-name="Path 40" class="cls-1" d="M127.631,33.37a31.522,31.522,0,0,1-1.282,9.521,21.939,21.939,0,0,1-3.662,7.14,15.784,15.784,0,0,1-6.225,4.577,21.219,21.219,0,0,1-8.605,1.648,23.109,23.109,0,0,1-8.422-1.465,13.816,13.816,0,0,1-5.859-4.211A19.106,19.106,0,0,1,90.1,43.623,36.781,36.781,0,0,1,89,34.1a29.542,29.542,0,0,1,1.282-9.337,21.939,21.939,0,0,1,3.662-7.14,15.784,15.784,0,0,1,6.225-4.577,21.22,21.22,0,0,1,8.605-1.648,22.092,22.092,0,0,1,8.239,1.465,13.814,13.814,0,0,1,5.859,4.211,18.232,18.232,0,0,1,3.479,6.774A31.522,31.522,0,0,1,127.631,33.37Zm-6.225.366a26.514,26.514,0,0,0-.732-6.774,13.351,13.351,0,0,0-2.2-5.493,12.876,12.876,0,0,0-4.028-3.662,13.039,13.039,0,0,0-6.225-1.282A12.514,12.514,0,0,0,102,17.991a13.541,13.541,0,0,0-4.211,3.662,13.351,13.351,0,0,0-2.2,5.493,36.282,36.282,0,0,0-.732,6.591,39.718,39.718,0,0,0,.549,6.957,13.351,13.351,0,0,0,2.2,5.493,11.149,11.149,0,0,0,4.028,3.662,13.33,13.33,0,0,0,6.408,1.282,13.8,13.8,0,0,0,6.408-1.465,12.064,12.064,0,0,0,4.211-3.845,14.447,14.447,0,0,0,2.2-5.493A36.9,36.9,0,0,0,121.406,33.737Z" transform="translate(-12.653 -11.034)"/>
      <path id="Path_41" data-name="Path 41" class="cls-1" d="M140.045,19.015v1.1c0,.183,0,.366-.183.366L129.609,49.042c0,.183-.183.366-.366.549a.951.951,0,0,1-.732.366c-.366,0-.732.183-1.1.183h-3.3c-.366,0-.732-.183-1.1-.183a.951.951,0,0,1-.732-.366c-.183-.183-.366-.366-.366-.549L111.666,20.48c0-.183-.183-.549-.183-.732s0-.366-.183-.366V19.2a.673.673,0,0,1,.183-.549c0-.183.183-.183.366-.366a7.927,7.927,0,0,1,.915-.183h2.746a7.932,7.932,0,0,1,.915.183c.183,0,.366.183.549.366s.183.366.366.549l8.422,24.717.183.366.183-.366L134.552,19.2c0-.183.183-.366.183-.549a1.407,1.407,0,0,1,.549-.366,7.929,7.929,0,0,1,.915-.183h2.746c.366,0,.549,0,.732.183a.394.394,0,0,1,.366.366Z" transform="translate(5.876 -5.467)"/>
      <path id="Path_42" data-name="Path 42" class="cls-1" d="M155.446,33a1.928,1.928,0,0,1-.732,1.831,2.079,2.079,0,0,1-1.465.549H133.476a18.448,18.448,0,0,0,.549,4.577,10.207,10.207,0,0,0,1.648,3.479,7.954,7.954,0,0,0,3.112,2.2,11.441,11.441,0,0,0,4.577.732A22.852,22.852,0,0,0,147.207,46c1.1-.183,2.014-.549,2.929-.732a13.909,13.909,0,0,1,2.014-.732,4.657,4.657,0,0,1,1.282-.366c.183,0,.366,0,.366.183.183,0,.183.183.366.366,0,.183.183.366.183.732v2.38c0,.183,0,.366-.183.366,0,.183-.183.183-.366.366a2.98,2.98,0,0,1-1.1.549,7.308,7.308,0,0,1-2.38.732c-.915.183-2.014.549-3.3.732a27.426,27.426,0,0,1-4.028.366,18.426,18.426,0,0,1-6.591-1.1,11.974,11.974,0,0,1-4.76-3.112,13.959,13.959,0,0,1-2.929-5.126,21.14,21.14,0,0,1-.915-7.14,26.681,26.681,0,0,1,.915-6.957,16.552,16.552,0,0,1,2.929-5.31,11.758,11.758,0,0,1,4.577-3.3,16.128,16.128,0,0,1,6.042-1.1,14.846,14.846,0,0,1,6.042,1.1,9.942,9.942,0,0,1,4.028,3.112,12.1,12.1,0,0,1,2.38,4.577,18.1,18.1,0,0,1,.732,5.493V33Zm-5.676-1.648c0-2.929-.549-5.126-2.014-6.774a7.225,7.225,0,0,0-6.042-2.563,8.2,8.2,0,0,0-3.662.732,9.622,9.622,0,0,0-2.563,2.014,9.282,9.282,0,0,0-1.648,2.929,11.5,11.5,0,0,0-.549,3.479H149.77Z" transform="translate(19.585 -5.716)"/>
      <path id="Path_43" data-name="Path 43" class="cls-1" d="M172.115,49.291c0,.183,0,.366-.183.366,0,.183-.183.183-.366.366a7.93,7.93,0,0,1-.915.183h-2.563c-.366,0-.549-.183-.915-.183a.394.394,0,0,1-.366-.366c0-.183-.183-.183-.183-.366V31.715a25.718,25.718,0,0,0-.366-4.211,9.545,9.545,0,0,0-1.1-2.746,4.476,4.476,0,0,0-2.014-1.648,6.688,6.688,0,0,0-2.746-.549,7.806,7.806,0,0,0-4.211,1.465,19.77,19.77,0,0,0-4.394,4.394V49.291c0,.183,0,.366-.183.366,0,.183-.183.183-.366.366a7.938,7.938,0,0,1-.915.183h-2.563a7.926,7.926,0,0,1-.915-.183.394.394,0,0,1-.366-.366c0-.183-.183-.183-.183-.366V19.265c0-.183,0-.366.183-.366,0-.183.183-.183.366-.366s.366-.183.732-.183h2.563c.366,0,.549.183.732.183.183.183.366.183.366.366s.183.183.183.366v4.028a17.925,17.925,0,0,1,5.126-4.211,10.156,10.156,0,0,1,5.126-1.282,11.146,11.146,0,0,1,5.126,1.1,9.8,9.8,0,0,1,3.3,2.746,9.089,9.089,0,0,1,1.831,4.028,23.109,23.109,0,0,1,.549,5.493V49.291Z" transform="translate(34.956 -5.716)"/>
    </g>
  </g>
</svg>
